PathFileType	4	(X/Y/Z)
DataRate	CameraRate	NumFrames	NumMarkers	Units	OrigDataRate	OrigDataStartFrame	OrigNumFrames	
  100.0	  100.0	    4	     55	     mm	  100.0	      194	    516
Frame#	Time	LASI			RASI			LPSI			RPSI			RTH1			RTH2			RTH3			RLFC			RMFC			LTH1			LTH2			LTH3			LLFC			LMFC			RTB1			RTB2			RTB3			RLMAL			RMMAL			LTB1			LTB2			LTB3			LMMAL			LLMAL			RCAL			RTOE			RMT5			LCAL			LTOE			LMT5			LACR			RACR			CLAV			LASH			LPSH			RASH			RPSH			RUA1			RUA2			RUA3			RLEL			RMEL			LUA1			LUA2			LUA3			LLEL			LMEL			RFAsuperior			RFAradius			RFAulna			LFAsuperior			LFAradius			LFAulna			RHJC			LHJC			
		X1	Y1	Z1	X2	Y2	Z2	X3	Y3	Z3	X4	Y4	Z4	X5	Y5	Z5	X6	Y6	Z6	X7	Y7	Z7	X8	Y8	Z8	X9	Y9	Z9	X10	Y10	Z10	X11	Y11	Z11	X12	Y12	Z12	X13	Y13	Z13	X14	Y14	Z14	X15	Y15	Z15	X16	Y16	Z16	X17	Y17	Z17	X18	Y18	Z18	X19	Y19	Z19	X20	Y20	Z20	X21	Y21	Z21	X22	Y22	Z22	X23	Y23	Z23	X24	Y24	Z24	X25	Y25	Z25	X26	Y26	Z26	X27	Y27	Z27	X28	Y28	Z28	X29	Y29	Z29	X30	Y30	Z30	X31	Y31	Z31	X32	Y32	Z32	X33	Y33	Z33	X34	Y34	Z34	X35	Y35	Z35	X36	Y36	Z36	X37	Y37	Z37	X38	Y38	Z38	X39	Y39	Z39	X40	Y40	Z40	X41	Y41	Z41	X42	Y42	Z42	X43	Y43	Z43	X44	Y44	Z44	X45	Y45	Z45	X46	Y46	Z46	X47	Y47	Z47	X48	Y48	Z48	X49	Y49	Z49	X50	Y50	Z50	X51	Y51	Z51	X52	Y52	Z52	X53	Y53	Z53	X54	Y54	Z54	X55	Y55	Z55	

197	1.97000	540.71475	1030.71320	-380.48077	277.44793	1030.60147	-379.93504	450.55264	1080.40019	-573.78449	369.19473	1077.95074	-573.92257	217.96385	894.88156	-446.45537	234.39466	760.46547	-399.82743	246.03144	654.54362	-488.66917	246.44043	543.09954	-480.75674	374.57030	530.95050	-477.81234	594.93889	911.48553	-460.73718	581.64212	791.15594	-405.95498	568.40855	662.88244	-509.97079	565.03698	548.30290	-506.50932	445.57624	528.93444	-485.68847	290.46372	402.87353	-454.00173	231.73545	312.40598	-510.71495	289.34323	206.84683	-495.16264	246.33360	119.84481	-559.17667	333.62204	120.46374	-540.59145	523.30208	428.06808	-474.50632	582.34972	359.22378	-548.71788	525.83863	224.02586	-505.07089	476.27307	122.82297	-533.70223	558.48428	115.53585	-569.02659	296.15806	79.85207	-635.83682	286.91723	74.33814	-399.24789	197.88432	53.98067	-429.31529	499.77989	80.57538	-637.72376	543.12204	81.11301	-406.30530	618.29210	48.33335	-446.87939	561.49707	1566.33516	-484.17212	263.75987	1550.57774	-511.80469	390.90514	1508.91711	-416.05234	573.78289	1517.10494	-421.79992	581.77397	1521.84217	-560.10108	250.77097	1515.60003	-454.08697	254.84821	1497.20314	-592.58812	157.27730	1518.05697	-554.52842	104.92676	1432.74219	-576.31390	50.39627	1484.38951	-548.61881	-46.16036	1475.21595	-534.28698	-36.53073	1395.21534	-532.74419	675.21841	1541.77880	-522.34409	730.77797	1457.36562	-539.65892	784.86168	1509.78669	-509.74188	872.87331	1508.75962	-486.59959	881.82892	1430.66993	-489.04444	-84.70306	1480.66003	-463.58941	-79.27577	1455.93884	-261.65334	-145.98109	1452.15788	-282.03450	895.00552	1515.71947	-364.26613	854.94751	1472.30081	-219.74963	921.08017	1480.92953	-223.45617	303.86995	959.38599	-447.72719	495.72735	981.55418	-461.94473	
198	1.98000	540.71127	1030.71003	-380.49153	277.44011	1030.59850	-379.97365	450.53188	1080.40546	-573.80601	369.17442	1077.94783	-573.93790	217.95305	894.87297	-446.49305	234.39622	760.46436	-399.88784	245.45014	654.59917	-488.49343	246.43786	543.10409	-480.78472	374.55722	530.94852	-477.83515	594.93614	911.48880	-460.75092	581.63430	791.14968	-405.95583	568.39516	662.87419	-509.97864	565.03114	548.29273	-506.53917	445.60093	528.97044	-485.64139	290.42501	402.74310	-454.06721	231.72220	312.42670	-510.76392	289.34469	206.85257	-495.16141	246.31945	119.84759	-559.16951	333.60456	120.46374	-540.59875	523.30394	428.06629	-474.52281	582.34939	359.21212	-548.71771	525.85013	224.00663	-505.09541	476.25651	122.82036	-533.71230	558.47290	115.53182	-569.02937	296.12747	79.85475	-635.83310	286.89306	74.33397	-399.23404	197.88501	53.97746	-429.31079	499.75328	80.56758	-637.71068	543.11780	81.12165	-406.31004	618.28259	48.33492	-446.87180	561.45924	1566.34768	-484.14130	263.52773	1550.63286	-511.68138	390.81295	1508.90529	-416.06337	573.74517	1517.14130	-421.82538	581.71080	1521.88154	-560.10241	250.77979	1515.60386	-454.04289	254.79183	1497.18351	-592.59683	157.17993	1518.01725	-554.51786	104.84602	1432.67973	-576.29706	50.30574	1484.37921	-548.57950	-46.25921	1475.22807	-534.21225	-36.59923	1395.16316	-532.70379	675.13944	1541.85773	-522.35799	730.74712	1457.41337	-539.67593	784.79207	1509.85867	-509.76484	872.80512	1508.83681	-486.62211	881.78125	1430.75865	-489.05969	-84.74641	1480.58100	-463.58339	-79.33714	1455.88531	-261.60449	-146.03615	1452.10933	-282.00864	894.95633	1515.80999	-364.30630	854.90024	1472.39861	-219.76193	921.03365	1481.04088	-223.50021	303.86272	959.37987	-447.74530	495.71845	981.55659	-461.97490	
199	1.99000	540.71227	1030.70406	-380.50931	277.42800	1030.59905	-380.01877	450.51094	1080.40820	-573.82236	369.15281	1077.94667	-573.95884	217.95906	894.85713	-446.54606	234.41760	760.46499	-399.88136	245.00796	654.64141	-488.31794	246.44060	543.10678	-480.79457	374.54374	530.94663	-477.84432	594.93884	911.49204	-460.77262	581.62663	791.14894	-405.96384	568.37640	662.86764	-509.99651	565.03037	548.29186	-506.56646	445.60437	528.99069	-485.60736	290.35603	402.88532	-454.02738	231.71831	312.44321	-510.79661	289.34505	206.85853	-495.15945	246.30833	119.84595	-559.16686	333.58845	120.46619	-540.60096	523.30633	428.07394	-474.53168	582.34405	359.20377	-548.72432	525.86134	223.99355	-505.10683	476.24584	122.82344	-533.72010	558.46341	115.52983	-569.02917	296.09781	79.85603	-635.82581	286.87324	74.32760	-399.21765	197.88135	53.95281	-429.33422	499.72853	80.55598	-637.69944	543.10565	81.14285	-406.30860	618.27352	48.33966	-446.86168	561.42288	1566.47254	-484.26061	263.27575	1550.70314	-511.53112	390.72296	1508.90837	-416.08555	573.70936	1517.19310	-421.83873	581.64683	1521.93602	-560.10821	250.69475	1515.61364	-454.16067	254.72109	1497.16290	-592.59577	157.09485	1518.00164	-554.50830	104.77948	1432.62298	-576.29954	50.21436	1484.38090	-548.53401	-46.35845	1475.24688	-534.15541	-36.67382	1395.12823	-532.66319	675.06740	1541.93623	-522.38269	730.71585	1457.47314	-539.70052	784.72723	1509.92994	-509.77694	872.75195	1508.90957	-486.67297	881.72534	1430.84178	-489.07368	-84.78232	1480.51152	-463.58577	-79.39825	1455.84924	-261.55538	-146.10120	1452.07142	-281.96865	894.92163	1515.89915	-364.35082	854.84648	1472.49529	-219.76225	920.98471	1481.14462	-223.53381	303.85336	959.37620	-447.76735	495.70776	981.55728	-462.01079	
200	2.00000	540.70988	1030.69930	-380.53635	277.41744	1030.59638	-380.07668	450.50327	1080.40828	-573.83711	369.14812	1077.94813	-573.99235	217.96901	894.84198	-446.59687	234.42597	760.42199	-399.88805	244.84327	654.64951	-488.23000	246.44448	543.10205	-480.79183	374.53509	530.94434	-477.84868	594.94058	911.49168	-460.79969	581.62058	791.15422	-405.98643	568.35504	662.86176	-510.02873	565.02960	548.29916	-506.60012	445.59023	528.98534	-485.64495	290.37161	402.95677	-454.01777	231.72295	312.45712	-510.79126	289.34404	206.85663	-495.15942	246.29984	119.83764	-559.17053	333.58276	120.46557	-540.60066	523.31120	428.07797	-474.54136	582.33741	359.19949	-548.74658	525.86835	223.99367	-505.10585	476.24570	122.83118	-533.72414	558.45959	115.52535	-569.02865	296.08016	79.85113	-635.82193	286.87104	74.33063	-399.21564	197.88328	53.93108	-429.35997	499.71848	80.55098	-637.69965	543.09162	81.16430	-406.30210	618.26880	48.34512	-446.86179	561.37585	1566.62116	-484.41272	263.08914	1550.74238	-511.42196	390.64451	1508.92676	-416.09731	573.67078	1517.24458	-421.84320	581.58208	1522.00387	-560.10931	250.54051	1515.61840	-454.38650	254.63331	1497.14188	-592.58536	157.03424	1517.99744	-554.50927	104.71308	1432.56521	-576.30312	50.13800	1484.35825	-548.50800	-46.38266	1475.18863	-534.22416	-36.74475	1395.10082	-532.62772	675.00372	1542.00525	-522.40829	730.66993	1457.54240	-539.72438	784.67078	1509.99907	-509.78983	872.71221	1508.97584	-486.73781	881.67362	1430.91523	-489.09390	-84.82882	1480.45814	-463.58046	-79.44814	1455.82534	-261.51515	-146.15568	1452.02348	-281.91728	894.89360	1515.98905	-364.39374	854.79875	1472.58561	-219.76264	920.94388	1481.23876	-223.56302	303.84865	959.37199	-447.80829	495.70284	981.55748	-462.04945	
